<mxfile host="65bd71144e">
    <diagram id="iL_A2tilZHopM-LC2aPW" name="Page-1">
        <mxGraphModel dx="1046" dy="771" grid="1" gridSize="10" guides="1" tooltips="1" connect="1" arrows="1" fold="1" page="1" pageScale="1" pageWidth="827" pageHeight="1169" math="0" shadow="0">
            <root>
                <mxCell id="0"/>
                <mxCell id="1" parent="0"/>
                <object label="" motion-id="re" keyframe-id="1" id="2">
                    <mxCell style="whiteSpace=wrap;html=1;aspect=fixed;" vertex="1" parent="1">
                        <mxGeometry x="140" y="280" width="80" height="80" as="geometry"/>
                    </mxCell>
                </object>
                <object label="" motion-id="re" keyframe-id="2" id="3">
                    <mxCell style="whiteSpace=wrap;html=1;aspect=fixed;" vertex="1" parent="1">
                        <mxGeometry x="460" y="280" width="80" height="80" as="geometry"/>
                    </mxCell>
                </object>
                <object label="" motion-id="ci" keyframe-id="1" id="4">
                    <mxCell style="ellipse;whiteSpace=wrap;html=1;aspect=fixed;" vertex="1" parent="1">
                        <mxGeometry x="140" y="80" width="80" height="80" as="geometry"/>
                    </mxCell>
                </object>
                <object label="" motion-id="ci" keyframe-id="2" id="5">
                    <mxCell style="ellipse;whiteSpace=wrap;html=1;aspect=fixed;" vertex="1" parent="1">
                        <mxGeometry x="470" y="70" width="80" height="80" as="geometry"/>
                    </mxCell>
                </object>
            </root>
        </mxGraphModel>
    </diagram>
</mxfile>